<?xml version="1.0" encoding="utf-8" standalone="no"?>
<!DOCTYPE svg PUBLIC "-//W3C//DTD SVG 1.1//EN"
  "http://www.w3.org/Graphics/SVG/1.1/DTD/svg11.dtd">
<!-- Created with matplotlib (http://matplotlib.org/) -->
<svg height="720pt" version="1.1" viewBox="0 0 1008 720" width="1008pt" xmlns="http://www.w3.org/2000/svg" xmlns:xlink="http://www.w3.org/1999/xlink">
 <defs>
  <style type="text/css">
*{stroke-linecap:butt;stroke-linejoin:round;}
  </style>
 </defs>
 <g id="figure_1">
  <g id="patch_1">
   <path d="M 0 720 
L 1008 720 
L 1008 0 
L 0 0 
z
" style="fill:#ffffff;"/>
  </g>
  <g id="axes_1">
   <g id="patch_2">
    <path d="M 97.776 640.8 
L 957.6 640.8 
L 957.6 36 
L 97.776 36 
z
" style="fill:#ffffff;"/>
   </g>
   <g id="matplotlib.axis_1">
    <g id="xtick_1">
     <g id="line2d_1">
      <defs>
       <path d="M 0 0 
L 0 3.5 
" id="m70b21847cb" style="stroke:#000000;stroke-width:0.8;"/>
      </defs>
      <g>
       <use style="stroke:#000000;stroke-width:0.8;" x="97.776" xlink:href="#m70b21847cb" y="640.8"/>
      </g>
     </g>
     <g id="text_1">
      <!-- $\mathdefault{1}$ -->
      <defs>
       <path d="M 12.40625 8.296875 
L 28.515625 8.296875 
L 28.515625 63.921875 
L 10.984375 60.40625 
L 10.984375 69.390625 
L 28.421875 72.90625 
L 38.28125 72.90625 
L 38.28125 8.296875 
L 54.390625 8.296875 
L 54.390625 0 
L 12.40625 0 
z
" id="DejaVuSans-31"/>
      </defs>
      <g transform="translate(89.776 666.796094)scale(0.25 -0.25)">
       <use transform="translate(0 0.09375)" xlink:href="#DejaVuSans-31"/>
      </g>
     </g>
    </g>
    <g id="xtick_2">
     <g id="line2d_2">
      <g>
       <use style="stroke:#000000;stroke-width:0.8;" x="321.391625" xlink:href="#m70b21847cb" y="640.8"/>
      </g>
     </g>
     <g id="text_2">
      <!-- $\mathdefault{10}$ -->
      <defs>
       <path d="M 31.78125 66.40625 
Q 24.171875 66.40625 20.328125 58.90625 
Q 16.5 51.421875 16.5 36.375 
Q 16.5 21.390625 20.328125 13.890625 
Q 24.171875 6.390625 31.78125 6.390625 
Q 39.453125 6.390625 43.28125 13.890625 
Q 47.125 21.390625 47.125 36.375 
Q 47.125 51.421875 43.28125 58.90625 
Q 39.453125 66.40625 31.78125 66.40625 
z
M 31.78125 74.21875 
Q 44.046875 74.21875 50.515625 64.515625 
Q 56.984375 54.828125 56.984375 36.375 
Q 56.984375 17.96875 50.515625 8.265625 
Q 44.046875 -1.421875 31.78125 -1.421875 
Q 19.53125 -1.421875 13.0625 8.265625 
Q 6.59375 17.96875 6.59375 36.375 
Q 6.59375 54.828125 13.0625 64.515625 
Q 19.53125 74.21875 31.78125 74.21875 
z
" id="DejaVuSans-30"/>
      </defs>
      <g transform="translate(305.391625 666.796094)scale(0.25 -0.25)">
       <use transform="translate(0 0.78125)" xlink:href="#DejaVuSans-31"/>
       <use transform="translate(63.623047 0.78125)" xlink:href="#DejaVuSans-30"/>
      </g>
     </g>
    </g>
    <g id="xtick_3">
     <g id="line2d_3">
      <g>
       <use style="stroke:#000000;stroke-width:0.8;" x="545.007249" xlink:href="#m70b21847cb" y="640.8"/>
      </g>
     </g>
     <g id="text_3">
      <!-- $\mathdefault{100}$ -->
      <g transform="translate(521.132249 666.796094)scale(0.25 -0.25)">
       <use transform="translate(0 0.78125)" xlink:href="#DejaVuSans-31"/>
       <use transform="translate(63.623047 0.78125)" xlink:href="#DejaVuSans-30"/>
       <use transform="translate(127.246094 0.78125)" xlink:href="#DejaVuSans-30"/>
      </g>
     </g>
    </g>
    <g id="xtick_4">
     <g id="line2d_4">
      <g>
       <use style="stroke:#000000;stroke-width:0.8;" x="768.622874" xlink:href="#m70b21847cb" y="640.8"/>
      </g>
     </g>
     <g id="text_4">
      <!-- $\mathdefault{1000}$ -->
      <g transform="translate(736.747874 666.796094)scale(0.25 -0.25)">
       <use transform="translate(0 0.78125)" xlink:href="#DejaVuSans-31"/>
       <use transform="translate(63.623047 0.78125)" xlink:href="#DejaVuSans-30"/>
       <use transform="translate(127.246094 0.78125)" xlink:href="#DejaVuSans-30"/>
       <use transform="translate(190.869141 0.78125)" xlink:href="#DejaVuSans-30"/>
      </g>
     </g>
    </g>
    <g id="xtick_5">
     <g id="line2d_5">
      <g>
       <use style="stroke:#000000;stroke-width:0.8;" x="957.6" xlink:href="#m70b21847cb" y="640.8"/>
      </g>
     </g>
     <g id="text_5">
      <!-- $\mathdefault{7000}$ -->
      <defs>
       <path d="M 8.203125 72.90625 
L 55.078125 72.90625 
L 55.078125 68.703125 
L 28.609375 0 
L 18.3125 0 
L 43.21875 64.59375 
L 8.203125 64.59375 
z
" id="DejaVuSans-37"/>
      </defs>
      <g transform="translate(925.725 666.796094)scale(0.25 -0.25)">
       <use transform="translate(0 0.78125)" xlink:href="#DejaVuSans-37"/>
       <use transform="translate(63.623047 0.78125)" xlink:href="#DejaVuSans-30"/>
       <use transform="translate(127.246094 0.78125)" xlink:href="#DejaVuSans-30"/>
       <use transform="translate(190.869141 0.78125)" xlink:href="#DejaVuSans-30"/>
      </g>
     </g>
    </g>
    <g id="xtick_6">
     <g id="line2d_6">
      <defs>
       <path d="M 0 0 
L 0 2 
" id="m88cb18ed46" style="stroke:#000000;stroke-width:0.6;"/>
      </defs>
      <g>
       <use style="stroke:#000000;stroke-width:0.6;" x="165.091011" xlink:href="#m88cb18ed46" y="640.8"/>
      </g>
     </g>
    </g>
    <g id="xtick_7">
     <g id="line2d_7">
      <g>
       <use style="stroke:#000000;stroke-width:0.6;" x="204.467767" xlink:href="#m88cb18ed46" y="640.8"/>
      </g>
     </g>
    </g>
    <g id="xtick_8">
     <g id="line2d_8">
      <g>
       <use style="stroke:#000000;stroke-width:0.6;" x="232.406021" xlink:href="#m88cb18ed46" y="640.8"/>
      </g>
     </g>
    </g>
    <g id="xtick_9">
     <g id="line2d_9">
      <g>
       <use style="stroke:#000000;stroke-width:0.6;" x="254.076614" xlink:href="#m88cb18ed46" y="640.8"/>
      </g>
     </g>
    </g>
    <g id="xtick_10">
     <g id="line2d_10">
      <g>
       <use style="stroke:#000000;stroke-width:0.6;" x="271.782778" xlink:href="#m88cb18ed46" y="640.8"/>
      </g>
     </g>
    </g>
    <g id="xtick_11">
     <g id="line2d_11">
      <g>
       <use style="stroke:#000000;stroke-width:0.6;" x="286.753126" xlink:href="#m88cb18ed46" y="640.8"/>
      </g>
     </g>
    </g>
    <g id="xtick_12">
     <g id="line2d_12">
      <g>
       <use style="stroke:#000000;stroke-width:0.6;" x="299.721032" xlink:href="#m88cb18ed46" y="640.8"/>
      </g>
     </g>
    </g>
    <g id="xtick_13">
     <g id="line2d_13">
      <g>
       <use style="stroke:#000000;stroke-width:0.6;" x="311.159535" xlink:href="#m88cb18ed46" y="640.8"/>
      </g>
     </g>
    </g>
    <g id="xtick_14">
     <g id="line2d_14">
      <g>
       <use style="stroke:#000000;stroke-width:0.6;" x="388.706635" xlink:href="#m88cb18ed46" y="640.8"/>
      </g>
     </g>
    </g>
    <g id="xtick_15">
     <g id="line2d_15">
      <g>
       <use style="stroke:#000000;stroke-width:0.6;" x="428.083392" xlink:href="#m88cb18ed46" y="640.8"/>
      </g>
     </g>
    </g>
    <g id="xtick_16">
     <g id="line2d_16">
      <g>
       <use style="stroke:#000000;stroke-width:0.6;" x="456.021646" xlink:href="#m88cb18ed46" y="640.8"/>
      </g>
     </g>
    </g>
    <g id="xtick_17">
     <g id="line2d_17">
      <g>
       <use style="stroke:#000000;stroke-width:0.6;" x="477.692239" xlink:href="#m88cb18ed46" y="640.8"/>
      </g>
     </g>
    </g>
    <g id="xtick_18">
     <g id="line2d_18">
      <g>
       <use style="stroke:#000000;stroke-width:0.6;" x="495.398403" xlink:href="#m88cb18ed46" y="640.8"/>
      </g>
     </g>
    </g>
    <g id="xtick_19">
     <g id="line2d_19">
      <g>
       <use style="stroke:#000000;stroke-width:0.6;" x="510.368751" xlink:href="#m88cb18ed46" y="640.8"/>
      </g>
     </g>
    </g>
    <g id="xtick_20">
     <g id="line2d_20">
      <g>
       <use style="stroke:#000000;stroke-width:0.6;" x="523.336656" xlink:href="#m88cb18ed46" y="640.8"/>
      </g>
     </g>
    </g>
    <g id="xtick_21">
     <g id="line2d_21">
      <g>
       <use style="stroke:#000000;stroke-width:0.6;" x="534.775159" xlink:href="#m88cb18ed46" y="640.8"/>
      </g>
     </g>
    </g>
    <g id="xtick_22">
     <g id="line2d_22">
      <g>
       <use style="stroke:#000000;stroke-width:0.6;" x="612.32226" xlink:href="#m88cb18ed46" y="640.8"/>
      </g>
     </g>
    </g>
    <g id="xtick_23">
     <g id="line2d_23">
      <g>
       <use style="stroke:#000000;stroke-width:0.6;" x="651.699017" xlink:href="#m88cb18ed46" y="640.8"/>
      </g>
     </g>
    </g>
    <g id="xtick_24">
     <g id="line2d_24">
      <g>
       <use style="stroke:#000000;stroke-width:0.6;" x="679.63727" xlink:href="#m88cb18ed46" y="640.8"/>
      </g>
     </g>
    </g>
    <g id="xtick_25">
     <g id="line2d_25">
      <g>
       <use style="stroke:#000000;stroke-width:0.6;" x="701.307863" xlink:href="#m88cb18ed46" y="640.8"/>
      </g>
     </g>
    </g>
    <g id="xtick_26">
     <g id="line2d_26">
      <g>
       <use style="stroke:#000000;stroke-width:0.6;" x="719.014027" xlink:href="#m88cb18ed46" y="640.8"/>
      </g>
     </g>
    </g>
    <g id="xtick_27">
     <g id="line2d_27">
      <g>
       <use style="stroke:#000000;stroke-width:0.6;" x="733.984375" xlink:href="#m88cb18ed46" y="640.8"/>
      </g>
     </g>
    </g>
    <g id="xtick_28">
     <g id="line2d_28">
      <g>
       <use style="stroke:#000000;stroke-width:0.6;" x="746.952281" xlink:href="#m88cb18ed46" y="640.8"/>
      </g>
     </g>
    </g>
    <g id="xtick_29">
     <g id="line2d_29">
      <g>
       <use style="stroke:#000000;stroke-width:0.6;" x="758.390784" xlink:href="#m88cb18ed46" y="640.8"/>
      </g>
     </g>
    </g>
    <g id="xtick_30">
     <g id="line2d_30">
      <g>
       <use style="stroke:#000000;stroke-width:0.6;" x="835.937884" xlink:href="#m88cb18ed46" y="640.8"/>
      </g>
     </g>
    </g>
    <g id="xtick_31">
     <g id="line2d_31">
      <g>
       <use style="stroke:#000000;stroke-width:0.6;" x="875.314641" xlink:href="#m88cb18ed46" y="640.8"/>
      </g>
     </g>
    </g>
    <g id="xtick_32">
     <g id="line2d_32">
      <g>
       <use style="stroke:#000000;stroke-width:0.6;" x="903.252895" xlink:href="#m88cb18ed46" y="640.8"/>
      </g>
     </g>
    </g>
    <g id="xtick_33">
     <g id="line2d_33">
      <g>
       <use style="stroke:#000000;stroke-width:0.6;" x="924.923488" xlink:href="#m88cb18ed46" y="640.8"/>
      </g>
     </g>
    </g>
    <g id="xtick_34">
     <g id="line2d_34">
      <g>
       <use style="stroke:#000000;stroke-width:0.6;" x="942.629652" xlink:href="#m88cb18ed46" y="640.8"/>
      </g>
     </g>
    </g>
    <g id="xtick_35">
     <g id="line2d_35">
      <g>
       <use style="stroke:#000000;stroke-width:0.6;" x="957.6" xlink:href="#m88cb18ed46" y="640.8"/>
      </g>
     </g>
    </g>
    <g id="text_6">
     <!-- # Epochs -->
     <defs>
      <path d="M 51.125 44 
L 36.921875 44 
L 32.8125 27.6875 
L 47.125 27.6875 
z
M 43.796875 71.78125 
L 38.71875 51.515625 
L 52.984375 51.515625 
L 58.109375 71.78125 
L 65.921875 71.78125 
L 60.890625 51.515625 
L 76.125 51.515625 
L 76.125 44 
L 58.984375 44 
L 54.984375 27.6875 
L 70.515625 27.6875 
L 70.515625 20.21875 
L 53.078125 20.21875 
L 48 0 
L 40.1875 0 
L 45.21875 20.21875 
L 30.90625 20.21875 
L 25.875 0 
L 18.015625 0 
L 23.09375 20.21875 
L 7.71875 20.21875 
L 7.71875 27.6875 
L 24.90625 27.6875 
L 29 44 
L 13.28125 44 
L 13.28125 51.515625 
L 30.90625 51.515625 
L 35.890625 71.78125 
z
" id="DejaVuSans-23"/>
      <path id="DejaVuSans-20"/>
      <path d="M 9.8125 72.90625 
L 55.90625 72.90625 
L 55.90625 64.59375 
L 19.671875 64.59375 
L 19.671875 43.015625 
L 54.390625 43.015625 
L 54.390625 34.71875 
L 19.671875 34.71875 
L 19.671875 8.296875 
L 56.78125 8.296875 
L 56.78125 0 
L 9.8125 0 
z
" id="DejaVuSans-45"/>
      <path d="M 18.109375 8.203125 
L 18.109375 -20.796875 
L 9.078125 -20.796875 
L 9.078125 54.6875 
L 18.109375 54.6875 
L 18.109375 46.390625 
Q 20.953125 51.265625 25.265625 53.625 
Q 29.59375 56 35.59375 56 
Q 45.5625 56 51.78125 48.09375 
Q 58.015625 40.1875 58.015625 27.296875 
Q 58.015625 14.40625 51.78125 6.484375 
Q 45.5625 -1.421875 35.59375 -1.421875 
Q 29.59375 -1.421875 25.265625 0.953125 
Q 20.953125 3.328125 18.109375 8.203125 
z
M 48.6875 27.296875 
Q 48.6875 37.203125 44.609375 42.84375 
Q 40.53125 48.484375 33.40625 48.484375 
Q 26.265625 48.484375 22.1875 42.84375 
Q 18.109375 37.203125 18.109375 27.296875 
Q 18.109375 17.390625 22.1875 11.75 
Q 26.265625 6.109375 33.40625 6.109375 
Q 40.53125 6.109375 44.609375 11.75 
Q 48.6875 17.390625 48.6875 27.296875 
z
" id="DejaVuSans-70"/>
      <path d="M 30.609375 48.390625 
Q 23.390625 48.390625 19.1875 42.75 
Q 14.984375 37.109375 14.984375 27.296875 
Q 14.984375 17.484375 19.15625 11.84375 
Q 23.34375 6.203125 30.609375 6.203125 
Q 37.796875 6.203125 41.984375 11.859375 
Q 46.1875 17.53125 46.1875 27.296875 
Q 46.1875 37.015625 41.984375 42.703125 
Q 37.796875 48.390625 30.609375 48.390625 
z
M 30.609375 56 
Q 42.328125 56 49.015625 48.375 
Q 55.71875 40.765625 55.71875 27.296875 
Q 55.71875 13.875 49.015625 6.21875 
Q 42.328125 -1.421875 30.609375 -1.421875 
Q 18.84375 -1.421875 12.171875 6.21875 
Q 5.515625 13.875 5.515625 27.296875 
Q 5.515625 40.765625 12.171875 48.375 
Q 18.84375 56 30.609375 56 
z
" id="DejaVuSans-6f"/>
      <path d="M 48.78125 52.59375 
L 48.78125 44.1875 
Q 44.96875 46.296875 41.140625 47.34375 
Q 37.3125 48.390625 33.40625 48.390625 
Q 24.65625 48.390625 19.8125 42.84375 
Q 14.984375 37.3125 14.984375 27.296875 
Q 14.984375 17.28125 19.8125 11.734375 
Q 24.65625 6.203125 33.40625 6.203125 
Q 37.3125 6.203125 41.140625 7.25 
Q 44.96875 8.296875 48.78125 10.40625 
L 48.78125 2.09375 
Q 45.015625 0.34375 40.984375 -0.53125 
Q 36.96875 -1.421875 32.421875 -1.421875 
Q 20.0625 -1.421875 12.78125 6.34375 
Q 5.515625 14.109375 5.515625 27.296875 
Q 5.515625 40.671875 12.859375 48.328125 
Q 20.21875 56 33.015625 56 
Q 37.15625 56 41.109375 55.140625 
Q 45.0625 54.296875 48.78125 52.59375 
z
" id="DejaVuSans-63"/>
      <path d="M 54.890625 33.015625 
L 54.890625 0 
L 45.90625 0 
L 45.90625 32.71875 
Q 45.90625 40.484375 42.875 44.328125 
Q 39.84375 48.1875 33.796875 48.1875 
Q 26.515625 48.1875 22.3125 43.546875 
Q 18.109375 38.921875 18.109375 30.90625 
L 18.109375 0 
L 9.078125 0 
L 9.078125 75.984375 
L 18.109375 75.984375 
L 18.109375 46.1875 
Q 21.34375 51.125 25.703125 53.5625 
Q 30.078125 56 35.796875 56 
Q 45.21875 56 50.046875 50.171875 
Q 54.890625 44.34375 54.890625 33.015625 
z
" id="DejaVuSans-68"/>
      <path d="M 44.28125 53.078125 
L 44.28125 44.578125 
Q 40.484375 46.53125 36.375 47.5 
Q 32.28125 48.484375 27.875 48.484375 
Q 21.1875 48.484375 17.84375 46.4375 
Q 14.5 44.390625 14.5 40.28125 
Q 14.5 37.15625 16.890625 35.375 
Q 19.28125 33.59375 26.515625 31.984375 
L 29.59375 31.296875 
Q 39.15625 29.25 43.1875 25.515625 
Q 47.21875 21.78125 47.21875 15.09375 
Q 47.21875 7.46875 41.1875 3.015625 
Q 35.15625 -1.421875 24.609375 -1.421875 
Q 20.21875 -1.421875 15.453125 -0.5625 
Q 10.6875 0.296875 5.421875 2 
L 5.421875 11.28125 
Q 10.40625 8.6875 15.234375 7.390625 
Q 20.0625 6.109375 24.8125 6.109375 
Q 31.15625 6.109375 34.5625 8.28125 
Q 37.984375 10.453125 37.984375 14.40625 
Q 37.984375 18.0625 35.515625 20.015625 
Q 33.0625 21.96875 24.703125 23.78125 
L 21.578125 24.515625 
Q 13.234375 26.265625 9.515625 29.90625 
Q 5.8125 33.546875 5.8125 39.890625 
Q 5.8125 47.609375 11.28125 51.796875 
Q 16.75 56 26.8125 56 
Q 31.78125 56 36.171875 55.265625 
Q 40.578125 54.546875 44.28125 53.078125 
z
" id="DejaVuSans-73"/>
     </defs>
     <g transform="translate(456.604406 698.790625)scale(0.3 -0.3)">
      <use xlink:href="#DejaVuSans-23"/>
      <use x="83.789062" xlink:href="#DejaVuSans-20"/>
      <use x="115.576172" xlink:href="#DejaVuSans-45"/>
      <use x="178.759766" xlink:href="#DejaVuSans-70"/>
      <use x="242.236328" xlink:href="#DejaVuSans-6f"/>
      <use x="303.417969" xlink:href="#DejaVuSans-63"/>
      <use x="358.398438" xlink:href="#DejaVuSans-68"/>
      <use x="421.777344" xlink:href="#DejaVuSans-73"/>
     </g>
    </g>
   </g>
   <g id="matplotlib.axis_2">
    <g id="ytick_1">
     <g id="line2d_36">
      <defs>
       <path d="M 0 0 
L -3.5 0 
" id="mc4c4b6e18b" style="stroke:#000000;stroke-width:0.8;"/>
      </defs>
      <g>
       <use style="stroke:#000000;stroke-width:0.8;" x="97.776" xlink:href="#mc4c4b6e18b" y="640.8"/>
      </g>
     </g>
     <g id="text_7">
      <!-- $10^{-4}$ -->
      <defs>
       <path d="M 10.59375 35.5 
L 73.1875 35.5 
L 73.1875 27.203125 
L 10.59375 27.203125 
z
" id="DejaVuSans-2212"/>
       <path d="M 37.796875 64.3125 
L 12.890625 25.390625 
L 37.796875 25.390625 
z
M 35.203125 72.90625 
L 47.609375 72.90625 
L 47.609375 25.390625 
L 58.015625 25.390625 
L 58.015625 17.1875 
L 47.609375 17.1875 
L 47.609375 0 
L 37.796875 0 
L 37.796875 17.1875 
L 4.890625 17.1875 
L 4.890625 26.703125 
z
" id="DejaVuSans-34"/>
      </defs>
      <g transform="translate(20.276 652.197656)scale(0.3 -0.3)">
       <use transform="translate(0 0.684375)" xlink:href="#DejaVuSans-31"/>
       <use transform="translate(63.623047 0.684375)" xlink:href="#DejaVuSans-30"/>
       <use transform="translate(128.203125 38.965625)scale(0.7)" xlink:href="#DejaVuSans-2212"/>
       <use transform="translate(186.855469 38.965625)scale(0.7)" xlink:href="#DejaVuSans-34"/>
      </g>
     </g>
    </g>
    <g id="ytick_2">
     <g id="line2d_37">
      <g>
       <use style="stroke:#000000;stroke-width:0.8;" x="97.776" xlink:href="#mc4c4b6e18b" y="489.6"/>
      </g>
     </g>
     <g id="text_8">
      <!-- $10^{-3}$ -->
      <defs>
       <path d="M 40.578125 39.3125 
Q 47.65625 37.796875 51.625 33 
Q 55.609375 28.21875 55.609375 21.1875 
Q 55.609375 10.40625 48.1875 4.484375 
Q 40.765625 -1.421875 27.09375 -1.421875 
Q 22.515625 -1.421875 17.65625 -0.515625 
Q 12.796875 0.390625 7.625 2.203125 
L 7.625 11.71875 
Q 11.71875 9.328125 16.59375 8.109375 
Q 21.484375 6.890625 26.8125 6.890625 
Q 36.078125 6.890625 40.9375 10.546875 
Q 45.796875 14.203125 45.796875 21.1875 
Q 45.796875 27.640625 41.28125 31.265625 
Q 36.765625 34.90625 28.71875 34.90625 
L 20.21875 34.90625 
L 20.21875 43.015625 
L 29.109375 43.015625 
Q 36.375 43.015625 40.234375 45.921875 
Q 44.09375 48.828125 44.09375 54.296875 
Q 44.09375 59.90625 40.109375 62.90625 
Q 36.140625 65.921875 28.71875 65.921875 
Q 24.65625 65.921875 20.015625 65.03125 
Q 15.375 64.15625 9.8125 62.3125 
L 9.8125 71.09375 
Q 15.4375 72.65625 20.34375 73.4375 
Q 25.25 74.21875 29.59375 74.21875 
Q 40.828125 74.21875 47.359375 69.109375 
Q 53.90625 64.015625 53.90625 55.328125 
Q 53.90625 49.265625 50.4375 45.09375 
Q 46.96875 40.921875 40.578125 39.3125 
z
" id="DejaVuSans-33"/>
      </defs>
      <g transform="translate(20.276 500.997656)scale(0.3 -0.3)">
       <use transform="translate(0 0.765625)" xlink:href="#DejaVuSans-31"/>
       <use transform="translate(63.623047 0.765625)" xlink:href="#DejaVuSans-30"/>
       <use transform="translate(128.203125 39.046875)scale(0.7)" xlink:href="#DejaVuSans-2212"/>
       <use transform="translate(186.855469 39.046875)scale(0.7)" xlink:href="#DejaVuSans-33"/>
      </g>
     </g>
    </g>
    <g id="ytick_3">
     <g id="line2d_38">
      <g>
       <use style="stroke:#000000;stroke-width:0.8;" x="97.776" xlink:href="#mc4c4b6e18b" y="338.4"/>
      </g>
     </g>
     <g id="text_9">
      <!-- $10^{-2}$ -->
      <defs>
       <path d="M 19.1875 8.296875 
L 53.609375 8.296875 
L 53.609375 0 
L 7.328125 0 
L 7.328125 8.296875 
Q 12.9375 14.109375 22.625 23.890625 
Q 32.328125 33.6875 34.8125 36.53125 
Q 39.546875 41.84375 41.421875 45.53125 
Q 43.3125 49.21875 43.3125 52.78125 
Q 43.3125 58.59375 39.234375 62.25 
Q 35.15625 65.921875 28.609375 65.921875 
Q 23.96875 65.921875 18.8125 64.3125 
Q 13.671875 62.703125 7.8125 59.421875 
L 7.8125 69.390625 
Q 13.765625 71.78125 18.9375 73 
Q 24.125 74.21875 28.421875 74.21875 
Q 39.75 74.21875 46.484375 68.546875 
Q 53.21875 62.890625 53.21875 53.421875 
Q 53.21875 48.921875 51.53125 44.890625 
Q 49.859375 40.875 45.40625 35.40625 
Q 44.1875 33.984375 37.640625 27.21875 
Q 31.109375 20.453125 19.1875 8.296875 
z
" id="DejaVuSans-32"/>
      </defs>
      <g transform="translate(20.276 349.797656)scale(0.3 -0.3)">
       <use transform="translate(0 0.765625)" xlink:href="#DejaVuSans-31"/>
       <use transform="translate(63.623047 0.765625)" xlink:href="#DejaVuSans-30"/>
       <use transform="translate(128.203125 39.046875)scale(0.7)" xlink:href="#DejaVuSans-2212"/>
       <use transform="translate(186.855469 39.046875)scale(0.7)" xlink:href="#DejaVuSans-32"/>
      </g>
     </g>
    </g>
    <g id="ytick_4">
     <g id="line2d_39">
      <g>
       <use style="stroke:#000000;stroke-width:0.8;" x="97.776" xlink:href="#mc4c4b6e18b" y="187.2"/>
      </g>
     </g>
     <g id="text_10">
      <!-- $10^{-1}$ -->
      <g transform="translate(20.276 198.597656)scale(0.3 -0.3)">
       <use transform="translate(0 0.684375)" xlink:href="#DejaVuSans-31"/>
       <use transform="translate(63.623047 0.684375)" xlink:href="#DejaVuSans-30"/>
       <use transform="translate(128.203125 38.965625)scale(0.7)" xlink:href="#DejaVuSans-2212"/>
       <use transform="translate(186.855469 38.965625)scale(0.7)" xlink:href="#DejaVuSans-31"/>
      </g>
     </g>
    </g>
    <g id="ytick_5">
     <g id="line2d_40">
      <g>
       <use style="stroke:#000000;stroke-width:0.8;" x="97.776" xlink:href="#mc4c4b6e18b" y="36"/>
      </g>
     </g>
     <g id="text_11">
      <!-- $10^0$ -->
      <g transform="translate(37.976 47.397656)scale(0.3 -0.3)">
       <use transform="translate(0 0.765625)" xlink:href="#DejaVuSans-31"/>
       <use transform="translate(63.623047 0.765625)" xlink:href="#DejaVuSans-30"/>
       <use transform="translate(128.203125 39.046875)scale(0.7)" xlink:href="#DejaVuSans-30"/>
      </g>
     </g>
    </g>
    <g id="ytick_6">
     <g id="line2d_41">
      <defs>
       <path d="M 0 0 
L -2 0 
" id="m82db1c2029" style="stroke:#000000;stroke-width:0.6;"/>
      </defs>
      <g>
       <use style="stroke:#000000;stroke-width:0.6;" x="97.776" xlink:href="#m82db1c2029" y="595.284265"/>
      </g>
     </g>
    </g>
    <g id="ytick_7">
     <g id="line2d_42">
      <g>
       <use style="stroke:#000000;stroke-width:0.6;" x="97.776" xlink:href="#m82db1c2029" y="568.659266"/>
      </g>
     </g>
    </g>
    <g id="ytick_8">
     <g id="line2d_43">
      <g>
       <use style="stroke:#000000;stroke-width:0.6;" x="97.776" xlink:href="#m82db1c2029" y="549.768529"/>
      </g>
     </g>
    </g>
    <g id="ytick_9">
     <g id="line2d_44">
      <g>
       <use style="stroke:#000000;stroke-width:0.6;" x="97.776" xlink:href="#m82db1c2029" y="535.115735"/>
      </g>
     </g>
    </g>
    <g id="ytick_10">
     <g id="line2d_45">
      <g>
       <use style="stroke:#000000;stroke-width:0.6;" x="97.776" xlink:href="#m82db1c2029" y="523.143531"/>
      </g>
     </g>
    </g>
    <g id="ytick_11">
     <g id="line2d_46">
      <g>
       <use style="stroke:#000000;stroke-width:0.6;" x="97.776" xlink:href="#m82db1c2029" y="513.021176"/>
      </g>
     </g>
    </g>
    <g id="ytick_12">
     <g id="line2d_47">
      <g>
       <use style="stroke:#000000;stroke-width:0.6;" x="97.776" xlink:href="#m82db1c2029" y="504.252794"/>
      </g>
     </g>
    </g>
    <g id="ytick_13">
     <g id="line2d_48">
      <g>
       <use style="stroke:#000000;stroke-width:0.6;" x="97.776" xlink:href="#m82db1c2029" y="496.518533"/>
      </g>
     </g>
    </g>
    <g id="ytick_14">
     <g id="line2d_49">
      <g>
       <use style="stroke:#000000;stroke-width:0.6;" x="97.776" xlink:href="#m82db1c2029" y="444.084265"/>
      </g>
     </g>
    </g>
    <g id="ytick_15">
     <g id="line2d_50">
      <g>
       <use style="stroke:#000000;stroke-width:0.6;" x="97.776" xlink:href="#m82db1c2029" y="417.459266"/>
      </g>
     </g>
    </g>
    <g id="ytick_16">
     <g id="line2d_51">
      <g>
       <use style="stroke:#000000;stroke-width:0.6;" x="97.776" xlink:href="#m82db1c2029" y="398.568529"/>
      </g>
     </g>
    </g>
    <g id="ytick_17">
     <g id="line2d_52">
      <g>
       <use style="stroke:#000000;stroke-width:0.6;" x="97.776" xlink:href="#m82db1c2029" y="383.915735"/>
      </g>
     </g>
    </g>
    <g id="ytick_18">
     <g id="line2d_53">
      <g>
       <use style="stroke:#000000;stroke-width:0.6;" x="97.776" xlink:href="#m82db1c2029" y="371.943531"/>
      </g>
     </g>
    </g>
    <g id="ytick_19">
     <g id="line2d_54">
      <g>
       <use style="stroke:#000000;stroke-width:0.6;" x="97.776" xlink:href="#m82db1c2029" y="361.821176"/>
      </g>
     </g>
    </g>
    <g id="ytick_20">
     <g id="line2d_55">
      <g>
       <use style="stroke:#000000;stroke-width:0.6;" x="97.776" xlink:href="#m82db1c2029" y="353.052794"/>
      </g>
     </g>
    </g>
    <g id="ytick_21">
     <g id="line2d_56">
      <g>
       <use style="stroke:#000000;stroke-width:0.6;" x="97.776" xlink:href="#m82db1c2029" y="345.318533"/>
      </g>
     </g>
    </g>
    <g id="ytick_22">
     <g id="line2d_57">
      <g>
       <use style="stroke:#000000;stroke-width:0.6;" x="97.776" xlink:href="#m82db1c2029" y="292.884265"/>
      </g>
     </g>
    </g>
    <g id="ytick_23">
     <g id="line2d_58">
      <g>
       <use style="stroke:#000000;stroke-width:0.6;" x="97.776" xlink:href="#m82db1c2029" y="266.259266"/>
      </g>
     </g>
    </g>
    <g id="ytick_24">
     <g id="line2d_59">
      <g>
       <use style="stroke:#000000;stroke-width:0.6;" x="97.776" xlink:href="#m82db1c2029" y="247.368529"/>
      </g>
     </g>
    </g>
    <g id="ytick_25">
     <g id="line2d_60">
      <g>
       <use style="stroke:#000000;stroke-width:0.6;" x="97.776" xlink:href="#m82db1c2029" y="232.715735"/>
      </g>
     </g>
    </g>
    <g id="ytick_26">
     <g id="line2d_61">
      <g>
       <use style="stroke:#000000;stroke-width:0.6;" x="97.776" xlink:href="#m82db1c2029" y="220.743531"/>
      </g>
     </g>
    </g>
    <g id="ytick_27">
     <g id="line2d_62">
      <g>
       <use style="stroke:#000000;stroke-width:0.6;" x="97.776" xlink:href="#m82db1c2029" y="210.621176"/>
      </g>
     </g>
    </g>
    <g id="ytick_28">
     <g id="line2d_63">
      <g>
       <use style="stroke:#000000;stroke-width:0.6;" x="97.776" xlink:href="#m82db1c2029" y="201.852794"/>
      </g>
     </g>
    </g>
    <g id="ytick_29">
     <g id="line2d_64">
      <g>
       <use style="stroke:#000000;stroke-width:0.6;" x="97.776" xlink:href="#m82db1c2029" y="194.118533"/>
      </g>
     </g>
    </g>
    <g id="ytick_30">
     <g id="line2d_65">
      <g>
       <use style="stroke:#000000;stroke-width:0.6;" x="97.776" xlink:href="#m82db1c2029" y="141.684265"/>
      </g>
     </g>
    </g>
    <g id="ytick_31">
     <g id="line2d_66">
      <g>
       <use style="stroke:#000000;stroke-width:0.6;" x="97.776" xlink:href="#m82db1c2029" y="115.059266"/>
      </g>
     </g>
    </g>
    <g id="ytick_32">
     <g id="line2d_67">
      <g>
       <use style="stroke:#000000;stroke-width:0.6;" x="97.776" xlink:href="#m82db1c2029" y="96.168529"/>
      </g>
     </g>
    </g>
    <g id="ytick_33">
     <g id="line2d_68">
      <g>
       <use style="stroke:#000000;stroke-width:0.6;" x="97.776" xlink:href="#m82db1c2029" y="81.515735"/>
      </g>
     </g>
    </g>
    <g id="ytick_34">
     <g id="line2d_69">
      <g>
       <use style="stroke:#000000;stroke-width:0.6;" x="97.776" xlink:href="#m82db1c2029" y="69.543531"/>
      </g>
     </g>
    </g>
    <g id="ytick_35">
     <g id="line2d_70">
      <g>
       <use style="stroke:#000000;stroke-width:0.6;" x="97.776" xlink:href="#m82db1c2029" y="59.421176"/>
      </g>
     </g>
    </g>
    <g id="ytick_36">
     <g id="line2d_71">
      <g>
       <use style="stroke:#000000;stroke-width:0.6;" x="97.776" xlink:href="#m82db1c2029" y="50.652794"/>
      </g>
     </g>
    </g>
    <g id="ytick_37">
     <g id="line2d_72">
      <g>
       <use style="stroke:#000000;stroke-width:0.6;" x="97.776" xlink:href="#m82db1c2029" y="42.918533"/>
      </g>
     </g>
    </g>
    <g id="text_12">
     <!-- Mean and STD -->
     <defs>
      <path d="M 9.8125 72.90625 
L 24.515625 72.90625 
L 43.109375 23.296875 
L 61.8125 72.90625 
L 76.515625 72.90625 
L 76.515625 0 
L 66.890625 0 
L 66.890625 64.015625 
L 48.09375 14.015625 
L 38.1875 14.015625 
L 19.390625 64.015625 
L 19.390625 0 
L 9.8125 0 
z
" id="DejaVuSans-4d"/>
      <path d="M 56.203125 29.59375 
L 56.203125 25.203125 
L 14.890625 25.203125 
Q 15.484375 15.921875 20.484375 11.0625 
Q 25.484375 6.203125 34.421875 6.203125 
Q 39.59375 6.203125 44.453125 7.46875 
Q 49.3125 8.734375 54.109375 11.28125 
L 54.109375 2.78125 
Q 49.265625 0.734375 44.1875 -0.34375 
Q 39.109375 -1.421875 33.890625 -1.421875 
Q 20.796875 -1.421875 13.15625 6.1875 
Q 5.515625 13.8125 5.515625 26.8125 
Q 5.515625 40.234375 12.765625 48.109375 
Q 20.015625 56 32.328125 56 
Q 43.359375 56 49.78125 48.890625 
Q 56.203125 41.796875 56.203125 29.59375 
z
M 47.21875 32.234375 
Q 47.125 39.59375 43.09375 43.984375 
Q 39.0625 48.390625 32.421875 48.390625 
Q 24.90625 48.390625 20.390625 44.140625 
Q 15.875 39.890625 15.1875 32.171875 
z
" id="DejaVuSans-65"/>
      <path d="M 34.28125 27.484375 
Q 23.390625 27.484375 19.1875 25 
Q 14.984375 22.515625 14.984375 16.5 
Q 14.984375 11.71875 18.140625 8.90625 
Q 21.296875 6.109375 26.703125 6.109375 
Q 34.1875 6.109375 38.703125 11.40625 
Q 43.21875 16.703125 43.21875 25.484375 
L 43.21875 27.484375 
z
M 52.203125 31.203125 
L 52.203125 0 
L 43.21875 0 
L 43.21875 8.296875 
Q 40.140625 3.328125 35.546875 0.953125 
Q 30.953125 -1.421875 24.3125 -1.421875 
Q 15.921875 -1.421875 10.953125 3.296875 
Q 6 8.015625 6 15.921875 
Q 6 25.140625 12.171875 29.828125 
Q 18.359375 34.515625 30.609375 34.515625 
L 43.21875 34.515625 
L 43.21875 35.40625 
Q 43.21875 41.609375 39.140625 45 
Q 35.0625 48.390625 27.6875 48.390625 
Q 23 48.390625 18.546875 47.265625 
Q 14.109375 46.140625 10.015625 43.890625 
L 10.015625 52.203125 
Q 14.9375 54.109375 19.578125 55.046875 
Q 24.21875 56 28.609375 56 
Q 40.484375 56 46.34375 49.84375 
Q 52.203125 43.703125 52.203125 31.203125 
z
" id="DejaVuSans-61"/>
      <path d="M 54.890625 33.015625 
L 54.890625 0 
L 45.90625 0 
L 45.90625 32.71875 
Q 45.90625 40.484375 42.875 44.328125 
Q 39.84375 48.1875 33.796875 48.1875 
Q 26.515625 48.1875 22.3125 43.546875 
Q 18.109375 38.921875 18.109375 30.90625 
L 18.109375 0 
L 9.078125 0 
L 9.078125 54.6875 
L 18.109375 54.6875 
L 18.109375 46.1875 
Q 21.34375 51.125 25.703125 53.5625 
Q 30.078125 56 35.796875 56 
Q 45.21875 56 50.046875 50.171875 
Q 54.890625 44.34375 54.890625 33.015625 
z
" id="DejaVuSans-6e"/>
      <path d="M 45.40625 46.390625 
L 45.40625 75.984375 
L 54.390625 75.984375 
L 54.390625 0 
L 45.40625 0 
L 45.40625 8.203125 
Q 42.578125 3.328125 38.25 0.953125 
Q 33.9375 -1.421875 27.875 -1.421875 
Q 17.96875 -1.421875 11.734375 6.484375 
Q 5.515625 14.40625 5.515625 27.296875 
Q 5.515625 40.1875 11.734375 48.09375 
Q 17.96875 56 27.875 56 
Q 33.9375 56 38.25 53.625 
Q 42.578125 51.265625 45.40625 46.390625 
z
M 14.796875 27.296875 
Q 14.796875 17.390625 18.875 11.75 
Q 22.953125 6.109375 30.078125 6.109375 
Q 37.203125 6.109375 41.296875 11.75 
Q 45.40625 17.390625 45.40625 27.296875 
Q 45.40625 37.203125 41.296875 42.84375 
Q 37.203125 48.484375 30.078125 48.484375 
Q 22.953125 48.484375 18.875 42.84375 
Q 14.796875 37.203125 14.796875 27.296875 
z
" id="DejaVuSans-64"/>
      <path d="M 53.515625 70.515625 
L 53.515625 60.890625 
Q 47.90625 63.578125 42.921875 64.890625 
Q 37.9375 66.21875 33.296875 66.21875 
Q 25.25 66.21875 20.875 63.09375 
Q 16.5 59.96875 16.5 54.203125 
Q 16.5 49.359375 19.40625 46.890625 
Q 22.3125 44.4375 30.421875 42.921875 
L 36.375 41.703125 
Q 47.40625 39.59375 52.65625 34.296875 
Q 57.90625 29 57.90625 20.125 
Q 57.90625 9.515625 50.796875 4.046875 
Q 43.703125 -1.421875 29.984375 -1.421875 
Q 24.8125 -1.421875 18.96875 -0.25 
Q 13.140625 0.921875 6.890625 3.21875 
L 6.890625 13.375 
Q 12.890625 10.015625 18.65625 8.296875 
Q 24.421875 6.59375 29.984375 6.59375 
Q 38.421875 6.59375 43.015625 9.90625 
Q 47.609375 13.234375 47.609375 19.390625 
Q 47.609375 24.75 44.3125 27.78125 
Q 41.015625 30.8125 33.5 32.328125 
L 27.484375 33.5 
Q 16.453125 35.6875 11.515625 40.375 
Q 6.59375 45.0625 6.59375 53.421875 
Q 6.59375 63.09375 13.40625 68.65625 
Q 20.21875 74.21875 32.171875 74.21875 
Q 37.3125 74.21875 42.625 73.28125 
Q 47.953125 72.359375 53.515625 70.515625 
z
" id="DejaVuSans-53"/>
      <path d="M -0.296875 72.90625 
L 61.375 72.90625 
L 61.375 64.59375 
L 35.5 64.59375 
L 35.5 0 
L 25.59375 0 
L 25.59375 64.59375 
L -0.296875 64.59375 
z
" id="DejaVuSans-54"/>
      <path d="M 19.671875 64.796875 
L 19.671875 8.109375 
L 31.59375 8.109375 
Q 46.6875 8.109375 53.6875 14.9375 
Q 60.6875 21.78125 60.6875 36.53125 
Q 60.6875 51.171875 53.6875 57.984375 
Q 46.6875 64.796875 31.59375 64.796875 
z
M 9.8125 72.90625 
L 30.078125 72.90625 
Q 51.265625 72.90625 61.171875 64.09375 
Q 71.09375 55.28125 71.09375 36.53125 
Q 71.09375 17.671875 61.125 8.828125 
Q 51.171875 0 30.078125 0 
L 9.8125 0 
z
" id="DejaVuSans-44"/>
     </defs>
     <g transform="translate(10.036937 447.260156)rotate(-90)scale(0.3 -0.3)">
      <use xlink:href="#DejaVuSans-4d"/>
      <use x="86.279297" xlink:href="#DejaVuSans-65"/>
      <use x="147.802734" xlink:href="#DejaVuSans-61"/>
      <use x="209.082031" xlink:href="#DejaVuSans-6e"/>
      <use x="272.460938" xlink:href="#DejaVuSans-20"/>
      <use x="304.248047" xlink:href="#DejaVuSans-61"/>
      <use x="365.527344" xlink:href="#DejaVuSans-6e"/>
      <use x="428.90625" xlink:href="#DejaVuSans-64"/>
      <use x="492.382812" xlink:href="#DejaVuSans-20"/>
      <use x="524.169922" xlink:href="#DejaVuSans-53"/>
      <use x="587.646484" xlink:href="#DejaVuSans-54"/>
      <use x="648.730469" xlink:href="#DejaVuSans-44"/>
     </g>
    </g>
   </g>
   <g id="line2d_73">
    <path clip-path="url(#p28186d2d6c)" d="M 97.776 302.459026 
L 165.091011 302.791201 
L 232.406021 303.414809 
L 286.753126 304.20951 
L 339.097788 304.985564 
L 360.768382 305.058011 
L 378.474545 304.834632 
L 393.444893 304.337322 
L 406.412799 303.596247 
L 417.851302 302.641308 
L 428.083392 301.498368 
L 437.339443 300.189283 
L 445.789556 298.732806 
L 453.562906 297.145512 
L 460.759904 295.442435 
L 467.460149 293.637414 
L 473.727809 291.743381 
L 479.615372 289.772381 
L 486.94829 287.04418 
L 493.766179 284.22409 
L 500.136661 281.334787 
L 504.654454 279.134801 
L 511.746292 275.428247 
L 518.355306 271.699075 
L 524.54307 267.97556 
L 531.482809 263.554983 
L 540.025899 257.836989 
L 560.254673 244.144847 
L 566.677842 240.04946 
L 573.429868 235.997549 
L 577.683761 233.624694 
L 582.42202 231.19351 
L 586.939812 229.124807 
L 591.256747 227.407597 
L 595.389925 226.019898 
L 599.907718 224.798018 
L 604.224652 223.911393 
L 608.862325 223.237384 
L 613.288586 222.816831 
L 619.796334 222.459018 
L 633.212808 221.873907 
L 639.65164 221.388846 
L 646.376313 220.686918 
L 657.357804 219.261769 
L 670.478286 217.55165 
L 679.150477 216.653289 
L 685.75307 216.167507 
L 692.362084 215.887925 
L 698.948678 215.841247 
L 705.675453 216.046527 
L 714.372835 216.619274 
L 723.133716 217.191531 
L 727.531557 217.30962 
L 734.123012 217.206295 
L 747.315781 216.774171 
L 751.690539 216.912464 
L 755.987365 217.326883 
L 760.419649 218.135589 
L 762.613842 218.710633 
L 764.759553 219.400547 
L 766.957724 220.247723 
L 769.203823 221.266493 
L 771.399146 222.413853 
L 773.545937 223.678663 
L 775.736595 225.109412 
L 780.147663 228.384249 
L 784.532072 232.088648 
L 788.884844 236.125207 
L 793.277149 240.496245 
L 799.831624 247.40361 
L 804.237314 252.05437 
L 806.433225 248.490358 
L 808.58058 255.897265 
L 810.807357 257.618445 
L 812.984218 258.620421 
L 815.173503 260.229742 
L 819.52442 262.20248 
L 821.741365 257.107719 
L 823.908829 264.065306 
L 826.136461 265.349609 
L 828.314138 266.87866 
L 830.495423 267.868647 
L 832.679016 269.110001 
L 834.8637 271.440384 
L 837.048334 273.981506 
L 839.231853 277.33712 
L 841.459147 281.255717 
L 843.636502 285.425702 
L 848.021673 294.479555 
L 865.513218 331.839645 
L 872.089244 345.140206 
L 878.655537 357.971293 
L 887.412721 374.61693 
L 907.108494 411.807852 
L 913.671751 424.63316 
L 920.227951 437.888674 
L 926.789478 451.720071 
L 933.346081 466.226504 
L 939.921579 481.568547 
L 944.298557 492.272759 
L 948.669432 503.39959 
L 953.041238 514.963686 
L 957.419476 527.016422 
L 963.988979 546.080983 
L 970.555765 566.263463 
L 970.555765 566.263463 
" style="fill:none;stroke:#ff0000;stroke-dasharray:16,16;stroke-dashoffset:0;stroke-width:4;"/>
   </g>
   <g id="line2d_74">
    <path clip-path="url(#p28186d2d6c)" d="M 97.776 392.393386 
L 165.091011 393.228756 
L 204.467767 394.069717 
L 232.406021 394.903928 
L 254.076614 395.721983 
L 286.753126 397.276216 
L 321.391625 399.28974 
L 354.068137 401.169063 
L 367.036042 401.734551 
L 378.474545 402.064804 
L 388.706635 402.184994 
L 397.962686 402.125436 
L 410.377228 401.766197 
L 421.383147 401.166448 
L 431.267777 400.405055 
L 443.05374 399.242376 
L 456.021646 397.679732 
L 467.460149 396.056533 
L 475.730252 394.689204 
L 481.50116 393.589967 
L 488.698158 391.982452 
L 493.766179 390.652301 
L 500.136661 388.715915 
L 504.654454 387.165642 
L 513.104566 383.947709 
L 535.848265 374.909126 
L 540.025899 373.478043 
L 545.007249 372.020793 
L 548.81617 371.157643 
L 553.376399 370.482032 
L 557.732063 370.248099 
L 560.254673 370.307735 
L 564.318657 370.710306 
L 568.981074 371.60943 
L 573.429868 372.78569 
L 580.419577 374.71956 
L 584.384006 375.552786 
L 588.813472 376.10032 
L 593.640057 376.315679 
L 599.907718 376.515038 
L 604.224652 376.936625 
L 608.862325 377.705579 
L 613.288586 378.505971 
L 617.521873 378.995335 
L 619.796334 379.057879 
L 622.018743 378.966109 
L 624.191429 378.734796 
L 626.316569 378.389862 
L 630.834362 377.355042 
L 635.151296 376.115467 
L 641.825948 373.952777 
L 652.985327 370.049371 
L 668.320085 364.631233 
L 674.911151 362.514886 
L 681.560403 360.619464 
L 688.00642 359.04644 
L 694.676962 357.714152 
L 698.948678 357.042576 
L 703.421231 356.522913 
L 707.878535 356.227685 
L 712.140208 356.174953 
L 716.555287 356.346297 
L 723.133716 356.908749 
L 729.730482 357.69629 
L 734.123012 358.367145 
L 738.458015 359.214 
L 742.861317 360.311398 
L 747.315781 361.673109 
L 751.690539 363.24321 
L 755.987365 365.015331 
L 760.419649 367.120365 
L 764.759553 369.463054 
L 775.736595 375.780236 
L 786.732843 381.538591 
L 788.884844 382.875382 
L 791.067296 384.406559 
L 793.277149 386.177716 
L 795.437833 388.13551 
L 797.62356 390.353946 
L 799.831624 392.84041 
L 804.237314 398.437617 
L 806.433225 368.552439 
L 808.58058 405.126809 
L 810.807357 407.301234 
L 812.984218 411.411138 
L 815.173503 410.382692 
L 817.373326 414.156473 
L 819.52442 415.126223 
L 821.741365 348.615165 
L 823.908829 418.259745 
L 828.314138 425.468724 
L 830.495423 426.559595 
L 832.679016 420.976382 
L 834.8637 440.637552 
L 837.048334 447.314494 
L 839.231853 455.538568 
L 841.459147 465.031178 
L 845.809982 485.152598 
L 858.958659 548.142181 
L 863.340531 568.117371 
L 869.889297 596.651425 
L 876.473085 623.865509 
L 883.02821 649.963048 
L 891.771895 683.858772 
L 901.450289 721 
L 901.450289 721 
" style="fill:none;stroke:#ff0000;stroke-linecap:square;stroke-width:2;"/>
   </g>
   <g id="line2d_75">
    <path clip-path="url(#p28186d2d6c)" d="M 97.776 280.94865 
L 204.467767 281.308304 
L 330.647676 281.98581 
L 354.068137 281.809326 
L 372.923604 281.384692 
L 388.706635 280.731848 
L 402.279621 279.877887 
L 414.186149 278.849646 
L 424.791042 277.669638 
L 434.351053 276.35594 
L 443.05374 274.923331 
L 451.040296 273.384367 
L 458.41967 271.750122 
L 463.045069 270.612662 
L 471.683207 268.235031 
L 479.615372 265.737548 
L 486.94829 263.139639 
L 493.766179 260.459901 
L 500.136661 257.716744 
L 504.654454 255.628877 
L 511.746292 252.113752 
L 518.355306 248.583345 
L 524.54307 245.067918 
L 531.482809 240.910511 
L 542.049202 234.28167 
L 553.376399 227.156432 
L 560.254673 223.016819 
L 566.677842 219.358079 
L 573.429868 215.79722 
L 577.683761 213.748074 
L 582.42202 211.68826 
L 586.939812 209.981991 
L 591.256747 208.6158 
L 595.389925 207.564684 
L 599.907718 206.704773 
L 604.224652 206.148566 
L 608.862325 205.796952 
L 615.663155 205.587287 
L 626.316569 205.353317 
L 633.212808 204.928541 
L 639.65164 204.272875 
L 648.406666 203.080932 
L 668.320085 200.208948 
L 674.911151 199.470535 
L 681.560403 198.912736 
L 688.00642 198.589585 
L 694.676962 198.520875 
L 701.307863 198.756252 
L 707.878535 199.297315 
L 716.555287 200.358853 
L 723.133716 201.167695 
L 727.531557 201.569325 
L 731.880718 201.809793 
L 738.458015 201.92746 
L 747.315781 202.061306 
L 751.690539 202.351027 
L 755.987365 202.907472 
L 760.419649 203.865475 
L 762.613842 204.516903 
L 764.759553 205.283046 
L 766.957724 206.20947 
L 769.203823 207.309791 
L 771.399146 208.536779 
L 773.545937 209.87901 
L 775.736595 211.388162 
L 780.147663 214.818976 
L 784.532072 218.674399 
L 788.884844 222.848326 
L 793.277149 227.330514 
L 804.237314 239.003818 
L 806.433225 233.508306 
L 808.58058 242.8931 
L 810.807357 244.594581 
L 812.984218 244.767698 
L 815.173503 247.152113 
L 819.52442 249.228473 
L 821.741365 245.072494 
L 823.908829 250.968766 
L 826.136461 252.181889 
L 828.314138 253.643931 
L 830.495423 254.92143 
L 832.679016 254.566257 
L 834.8637 257.892977 
L 837.048334 260.449443 
L 839.231853 263.813956 
L 841.459147 267.692686 
L 843.636502 271.808634 
L 848.021673 280.775789 
L 867.708401 322.69619 
L 874.273183 335.861654 
L 883.02821 352.800236 
L 911.466001 406.941761 
L 918.042719 420.133054 
L 924.592734 433.793649 
L 931.166867 448.155728 
L 937.733453 463.255475 
L 942.110319 473.797073 
L 946.485251 484.751095 
L 950.865065 496.152274 
L 955.240814 508.005298 
L 959.604708 520.316963 
L 963.988979 533.190433 
L 970.555765 553.419544 
L 970.555765 553.419544 
" style="fill:none;stroke:#00bfbf;stroke-dasharray:16,16;stroke-dashoffset:0;stroke-width:4;"/>
   </g>
   <g id="line2d_76">
    <path clip-path="url(#p28186d2d6c)" d="M 97.776 341.424745 
L 165.091011 342.345009 
L 204.467767 343.272029 
L 232.406021 344.194222 
L 254.076614 345.102487 
L 286.753126 346.844443 
L 311.159535 348.437298 
L 372.923604 352.721375 
L 388.706635 353.500676 
L 402.279621 353.954992 
L 417.851302 354.222254 
L 437.339443 354.275086 
L 463.045069 354.324381 
L 479.615372 354.3469 
L 486.94829 354.116227 
L 490.417053 353.891595 
L 495.398403 353.389548 
L 501.666063 352.389233 
L 507.553625 351.02371 
L 511.746292 349.793578 
L 515.765419 348.424086 
L 522.115067 345.927904 
L 529.224218 342.762473 
L 545.007249 335.456643 
L 548.81617 333.955247 
L 553.376399 332.457339 
L 557.732063 331.396048 
L 560.254673 330.963728 
L 564.318657 330.559276 
L 568.981074 330.516653 
L 573.429868 330.795978 
L 582.42202 331.532921 
L 586.939812 331.598917 
L 591.256747 331.384136 
L 599.907718 330.703812 
L 604.224652 330.655208 
L 608.862325 331.005567 
L 613.288586 331.678321 
L 622.018743 333.409946 
L 633.212808 335.554439 
L 639.65164 336.544005 
L 643.952639 336.985545 
L 648.406666 337.179038 
L 652.985327 337.048861 
L 657.357804 336.596476 
L 661.833943 335.823937 
L 666.11283 334.850598 
L 672.589565 333.117465 
L 681.560403 330.682312 
L 688.00642 329.213012 
L 692.362084 328.447568 
L 696.73456 327.918193 
L 701.307863 327.67864 
L 705.675453 327.81047 
L 710.032746 328.340885 
L 714.372835 329.268273 
L 718.68977 330.507481 
L 729.730482 333.986264 
L 736.3147 335.696294 
L 749.468665 338.805708 
L 753.862714 340.145352 
L 758.174733 341.846982 
L 760.419649 342.923195 
L 764.759553 345.394788 
L 769.203823 348.369384 
L 782.280271 357.571325 
L 786.732843 360.682032 
L 791.067296 364.076059 
L 793.277149 366.02562 
L 797.62356 370.325951 
L 802.05945 375.294124 
L 804.237314 377.872453 
L 806.433225 335.475517 
L 808.58058 383.020712 
L 810.807357 385.390478 
L 812.984218 388.280765 
L 815.173503 382.449794 
L 817.373326 390.605648 
L 819.52442 391.132123 
L 821.741365 313.509763 
L 823.908829 393.827982 
L 826.136461 396.407381 
L 828.314138 399.395984 
L 830.495423 397.681271 
L 832.679016 395.058196 
L 834.8637 412.628449 
L 837.048334 418.952233 
L 839.231853 426.784196 
L 841.459147 435.820215 
L 845.809982 454.923316 
L 863.340531 534.867749 
L 869.889297 562.673796 
L 876.473085 589.308944 
L 883.02821 614.87856 
L 893.960419 656.394969 
L 907.108494 706.312779 
L 910.890788 721 
L 910.890788 721 
" style="fill:none;stroke:#00bfbf;stroke-linecap:square;stroke-width:2;"/>
   </g>
   <g id="line2d_77">
    <path clip-path="url(#p28186d2d6c)" d="M 97.776 271.228293 
L 232.406021 271.633712 
L 321.391625 271.973061 
L 346.871139 271.82448 
L 367.036042 271.451134 
L 383.725285 270.867489 
L 397.962686 270.095402 
L 410.377228 269.158024 
L 421.383147 268.075214 
L 431.267777 266.862739 
L 440.238615 265.533368 
L 448.450408 264.097924 
L 456.021646 262.566183 
L 463.045069 260.947309 
L 471.683207 258.668449 
L 479.615372 256.270601 
L 486.94829 253.77369 
L 493.766179 251.197305 
L 500.136661 248.560895 
L 507.553625 245.210171 
L 513.104566 242.507783 
L 520.877916 238.456751 
L 526.911846 235.115358 
L 535.848265 229.91376 
L 556.013168 218.008925 
L 562.713413 214.342822 
L 568.981074 211.147704 
L 575.580104 208.099022 
L 580.419577 206.126517 
L 584.384006 204.713501 
L 588.813472 203.381722 
L 593.640057 202.253764 
L 597.67509 201.578491 
L 602.09017 201.111627 
L 606.828428 200.894359 
L 610.854498 200.893191 
L 630.834362 201.304744 
L 637.427534 200.99679 
L 643.952639 200.420129 
L 652.985327 199.348591 
L 668.320085 197.493104 
L 677.178531 196.700834 
L 683.679361 196.337766 
L 690.208669 196.205262 
L 696.73456 196.345939 
L 703.421231 196.806451 
L 710.032746 197.570989 
L 725.281688 199.65904 
L 729.730482 199.991071 
L 734.123012 200.120939 
L 749.468665 200.191727 
L 753.862714 200.563738 
L 758.174733 201.264959 
L 760.419649 201.793834 
L 762.613842 202.435938 
L 764.759553 203.19419 
L 766.957724 204.112876 
L 769.203823 205.204576 
L 771.399146 206.421235 
L 773.545937 207.750338 
L 777.967171 210.89092 
L 782.280271 214.409513 
L 786.732843 218.417731 
L 791.067296 222.608224 
L 797.62356 229.382776 
L 804.237314 236.43677 
L 806.433225 230.040839 
L 808.58058 240.340183 
L 810.807357 242.086219 
L 812.984218 241.905478 
L 815.173503 244.571591 
L 819.52442 246.791432 
L 821.741365 243.417267 
L 823.908829 248.483183 
L 826.136461 249.690884 
L 830.495423 252.77675 
L 832.679016 251.920305 
L 834.8637 255.702587 
L 837.048334 258.34466 
L 839.231853 261.760531 
L 841.459147 265.644434 
L 843.636502 269.739895 
L 848.021673 278.650734 
L 856.750083 297.435476 
L 863.340531 311.478094 
L 869.889297 324.956813 
L 876.473085 338.032045 
L 885.215977 354.858975 
L 909.277464 400.675677 
L 915.849842 413.741679 
L 922.404967 427.261002 
L 928.974893 441.418294 
L 935.547132 456.303569 
L 939.921579 466.656655 
L 944.298557 477.420553 
L 948.669432 488.600854 
L 953.041238 500.218639 
L 957.419476 512.32514 
L 961.795012 524.959579 
L 966.172585 538.088544 
L 970.555765 551.715789 
L 970.555765 551.715789 
" style="fill:none;stroke:#0000ff;stroke-dasharray:16,16;stroke-dashoffset:0;stroke-width:4;"/>
   </g>
   <g id="line2d_78">
    <path clip-path="url(#p28186d2d6c)" d="M 97.776 322.411952 
L 165.091011 323.484791 
L 204.467767 324.564781 
L 232.406021 325.639204 
L 254.076614 326.698159 
L 271.782778 327.732703 
L 299.721032 329.695596 
L 330.647676 332.275928 
L 367.036042 335.428114 
L 383.725285 336.672727 
L 397.962686 337.534216 
L 414.186149 338.255069 
L 431.267777 338.74374 
L 460.759904 339.275203 
L 473.727809 339.347195 
L 481.50116 339.147201 
L 488.698158 338.616951 
L 493.766179 337.949806 
L 498.582787 337.032481 
L 501.666063 336.283247 
L 504.654454 335.429965 
L 508.971388 333.973818 
L 513.104566 332.338527 
L 518.355306 329.947617 
L 524.54307 326.747009 
L 531.482809 322.799016 
L 545.007249 314.88146 
L 548.81617 312.84594 
L 553.376399 310.651342 
L 557.732063 308.855938 
L 562.713413 307.206181 
L 566.677842 306.208705 
L 571.230943 305.372176 
L 577.683761 304.551857 
L 586.939812 303.436683 
L 597.67509 301.979605 
L 602.09017 301.717053 
L 604.224652 301.735772 
L 606.828428 301.906635 
L 610.854498 302.494451 
L 615.663155 303.657007 
L 619.796334 304.971897 
L 624.191429 306.612469 
L 628.806835 308.542683 
L 646.376313 316.279013 
L 650.722978 317.791564 
L 655.196171 318.997442 
L 659.472367 319.773145 
L 663.854239 320.178444 
L 668.320085 320.219782 
L 672.589565 319.970829 
L 677.178531 319.476926 
L 685.75307 318.256906 
L 692.362084 317.360108 
L 696.73456 316.926064 
L 701.307863 316.704884 
L 705.675453 316.796862 
L 710.032746 317.250099 
L 714.372835 318.08561 
L 718.68977 319.247724 
L 725.281688 321.374432 
L 745.114087 328.112686 
L 749.468665 329.814679 
L 753.862714 331.743239 
L 758.174733 333.941861 
L 762.613842 336.609634 
L 766.957724 339.619766 
L 784.532072 352.582873 
L 788.884844 355.78319 
L 793.277149 359.423991 
L 797.62356 363.547996 
L 802.05945 368.258128 
L 804.237314 370.70308 
L 806.433225 327.519712 
L 808.58058 375.492721 
L 810.807357 377.950469 
L 812.984218 380.561898 
L 815.173503 374.532902 
L 817.373326 383.12216 
L 819.52442 383.705061 
L 821.741365 306.874327 
L 823.908829 386.483935 
L 826.136461 388.85283 
L 828.314138 391.683903 
L 830.495423 389.965228 
L 832.679016 388.046815 
L 834.8637 404.35161 
L 837.048334 410.408789 
L 839.231853 417.898514 
L 841.459147 426.563421 
L 845.809982 444.999937 
L 854.570303 484.452361 
L 861.155582 513.7082 
L 867.708401 541.528928 
L 874.273183 568.1056 
L 880.851194 593.713363 
L 889.588821 626.770531 
L 907.108494 692.620776 
L 914.41289 721 
L 914.41289 721 
" style="fill:none;stroke:#0000ff;stroke-linecap:square;stroke-width:2;"/>
   </g>
   <g id="line2d_79">
    <path clip-path="url(#p28186d2d6c)" d="M 97.776 267.300867 
L 232.406021 267.652748 
L 311.159535 267.914265 
L 339.097788 267.805107 
L 360.768382 267.47984 
L 378.474545 266.950631 
L 393.444893 266.237728 
L 406.412799 265.363173 
L 417.851302 264.346337 
L 428.083392 263.202429 
L 437.339443 261.943344 
L 445.789556 260.578749 
L 453.562906 259.116984 
L 460.759904 257.56573 
L 467.460149 255.93244 
L 473.727809 254.224696 
L 481.50116 251.845643 
L 488.698158 249.368453 
L 495.398403 246.814515 
L 501.666063 244.205992 
L 508.971388 240.901811 
L 515.765419 237.585495 
L 524.54307 232.983485 
L 533.690064 227.871941 
L 556.013168 215.154125 
L 562.713413 211.649843 
L 568.981074 208.610563 
L 575.580104 205.727054 
L 580.419577 203.873872 
L 584.384006 202.556052 
L 588.813472 201.326751 
L 593.640057 200.304714 
L 597.67509 199.712914 
L 602.09017 199.332078 
L 606.828428 199.201541 
L 613.288586 199.367954 
L 626.316569 199.972506 
L 633.212808 199.973298 
L 639.65164 199.672466 
L 646.376313 199.098848 
L 657.357804 197.876348 
L 668.320085 196.68983 
L 677.178531 195.968827 
L 683.679361 195.649147 
L 690.208669 195.553867 
L 696.73456 195.726939 
L 703.421231 196.217962 
L 710.032746 197.011774 
L 725.281688 199.130865 
L 729.730482 199.448277 
L 734.123012 199.555992 
L 749.468665 199.565004 
L 753.862714 199.9318 
L 758.174733 200.632803 
L 760.419649 201.16333 
L 762.613842 201.808148 
L 764.759553 202.570017 
L 766.957724 203.493273 
L 769.203823 204.590377 
L 771.399146 205.812788 
L 773.545937 207.147706 
L 777.967171 210.299665 
L 782.280271 213.826969 
L 786.732843 217.841056 
L 791.067296 222.036065 
L 795.437833 226.510686 
L 804.237314 235.910619 
L 806.433225 229.507341 
L 808.58058 239.834732 
L 810.807357 241.582286 
L 812.984218 241.374862 
L 815.173503 244.067799 
L 819.52442 246.267868 
L 821.741365 243.093983 
L 823.908829 247.942346 
L 826.136461 249.14842 
L 830.495423 252.288864 
L 832.679016 251.414199 
L 834.8637 255.266898 
L 837.048334 257.948443 
L 839.231853 261.394262 
L 841.459147 265.299499 
L 843.636502 269.410602 
L 848.021673 278.344737 
L 856.750083 297.161279 
L 863.340531 311.220437 
L 869.889297 324.711325 
L 876.473085 337.795872 
L 885.215977 354.632353 
L 909.277464 400.467103 
L 915.849842 413.536987 
L 922.404967 427.059927 
L 928.974893 441.220643 
L 935.547132 456.109211 
L 939.921579 466.464375 
L 944.298557 477.230403 
L 948.669432 488.412694 
L 953.041238 500.032454 
L 957.419476 512.14093 
L 961.795012 524.777292 
L 966.172585 537.908096 
L 970.555765 551.537328 
L 970.555765 551.537328 
" style="fill:none;stroke:#008000;stroke-dasharray:16,16;stroke-dashoffset:0;stroke-width:4;"/>
   </g>
   <g id="line2d_80">
    <path clip-path="url(#p28186d2d6c)" d="M 97.776 314.655496 
L 165.091011 315.807902 
L 204.467767 316.960998 
L 232.406021 318.101246 
L 254.076614 319.218018 
L 271.782778 320.301726 
L 299.721032 322.334902 
L 330.647676 324.946339 
L 360.768382 327.488666 
L 378.474545 328.722872 
L 393.444893 329.47617 
L 406.412799 329.854456 
L 417.851302 329.956918 
L 431.267777 329.807128 
L 445.789556 329.361416 
L 460.759904 328.641825 
L 471.683207 327.885816 
L 479.615372 327.089892 
L 485.166313 326.322885 
L 490.417053 325.372769 
L 495.398403 324.218257 
L 500.136661 322.853543 
L 504.654454 321.288273 
L 508.971388 319.544216 
L 513.104566 317.650833 
L 518.355306 314.949888 
L 524.54307 311.394168 
L 531.482809 307.034637 
L 548.81617 295.752911 
L 553.376399 293.079876 
L 557.732063 290.765991 
L 562.713413 288.455055 
L 566.677842 286.890389 
L 571.230943 285.381497 
L 575.580104 284.175306 
L 582.42202 282.558424 
L 591.256747 280.725123 
L 595.389925 280.042649 
L 599.907718 279.588243 
L 602.09017 279.521745 
L 604.224652 279.571336 
L 606.828428 279.797554 
L 610.854498 280.515761 
L 613.288586 281.160583 
L 617.521873 282.625987 
L 622.018743 284.603052 
L 626.316569 286.836989 
L 630.834362 289.482901 
L 637.427534 293.703629 
L 646.376313 299.508089 
L 650.722978 302.092701 
L 655.196171 304.443742 
L 659.472367 306.32185 
L 663.854239 307.827592 
L 668.320085 308.921599 
L 672.589565 309.583104 
L 677.178531 309.939683 
L 681.560403 310.015677 
L 688.00642 309.834213 
L 698.948678 309.438859 
L 703.421231 309.521574 
L 707.878535 309.892486 
L 712.140208 310.587357 
L 716.555287 311.674324 
L 720.93716 313.055327 
L 729.730482 316.226545 
L 740.68462 320.32966 
L 747.315781 323.021481 
L 751.690539 324.974754 
L 755.987365 327.121096 
L 760.419649 329.671035 
L 764.759553 332.557555 
L 769.203823 335.865018 
L 780.147663 344.293574 
L 788.884844 350.716601 
L 793.277149 354.330217 
L 797.62356 358.369314 
L 802.05945 362.957721 
L 804.237314 365.344246 
L 806.433225 324.703271 
L 808.58058 370.077834 
L 810.807357 372.507313 
L 812.984218 375.087533 
L 815.173503 369.684124 
L 817.373326 377.745187 
L 819.52442 378.387982 
L 821.741365 305.102762 
L 823.908829 381.115878 
L 826.136461 383.372504 
L 828.314138 386.068892 
L 830.495423 384.639777 
L 832.679016 382.980888 
L 834.8637 398.255568 
L 837.048334 404.068322 
L 839.231853 411.263999 
L 841.459147 419.629481 
L 845.809982 437.572983 
L 852.381474 466.573476 
L 861.155582 505.258738 
L 867.708401 532.825415 
L 874.273183 559.204851 
L 880.851194 584.655646 
L 889.588821 617.547145 
L 907.108494 683.173246 
L 913.671751 708.560796 
L 916.810196 721 
L 916.810196 721 
" style="fill:none;stroke:#008000;stroke-linecap:square;stroke-width:2;"/>
   </g>
   <g id="line2d_81">
    <path clip-path="url(#p28186d2d6c)" d="M 97.776 263.87459 
L 232.406021 264.216037 
L 321.391625 264.478733 
L 346.871139 264.327689 
L 367.036042 263.979286 
L 383.725285 263.445477 
L 397.962686 262.742255 
L 410.377228 261.885587 
L 421.383147 260.888902 
L 431.267777 259.763033 
L 440.238615 258.517243 
L 448.450408 257.160055 
L 456.021646 255.699964 
L 463.045069 254.145762 
L 471.683207 251.943252 
L 479.615372 249.613584 
L 486.94829 247.181755 
L 493.766179 244.67319 
L 500.136661 242.112755 
L 507.553625 238.87438 
L 513.104566 236.27803 
L 522.115067 231.774469 
L 531.482809 226.768619 
L 556.013168 213.319027 
L 562.713413 209.977052 
L 568.981074 207.094482 
L 575.580104 204.379114 
L 580.419577 202.649329 
L 584.384006 201.431108 
L 588.813472 200.309855 
L 593.640057 199.399575 
L 597.67509 198.894704 
L 602.09017 198.60049 
L 606.828428 198.551359 
L 613.288586 198.807506 
L 626.316569 199.524912 
L 633.212808 199.561561 
L 639.65164 199.287435 
L 646.376313 198.738033 
L 657.357804 197.549106 
L 668.320085 196.387081 
L 677.178531 195.677703 
L 683.679361 195.361806 
L 690.208669 195.266807 
L 696.73456 195.437565 
L 703.421231 195.924891 
L 710.032746 196.715201 
L 725.281688 198.831461 
L 729.730482 199.150176 
L 734.123012 199.260406 
L 749.468665 199.283634 
L 753.862714 199.653456 
L 758.174733 200.355426 
L 760.419649 200.885317 
L 762.613842 201.528573 
L 764.759553 202.287904 
L 766.957724 203.207452 
L 769.203823 204.299581 
L 771.399146 205.516015 
L 773.545937 206.844101 
L 777.967171 209.979397 
L 782.280271 213.487785 
L 786.732843 217.480354 
L 791.067296 221.653399 
L 795.437833 226.106632 
L 804.237314 235.479422 
L 806.433225 229.149161 
L 808.58058 239.405954 
L 810.807357 241.157681 
L 812.984218 240.969928 
L 815.173503 243.660292 
L 819.52442 245.88403 
L 821.741365 242.78337 
L 823.908829 247.598207 
L 826.136461 248.829698 
L 830.495423 252.030103 
L 832.679016 251.198012 
L 834.8637 255.080688 
L 837.048334 257.802406 
L 839.231853 261.283715 
L 841.459147 265.218733 
L 845.809982 273.712257 
L 850.184114 282.920048 
L 863.340531 311.15537 
L 869.889297 324.634769 
L 876.473085 337.710836 
L 885.215977 354.538872 
L 909.277464 400.359929 
L 915.849842 413.42773 
L 922.404967 426.949084 
L 928.974893 441.108663 
L 935.547132 455.996437 
L 939.921579 466.351274 
L 944.298557 477.11703 
L 948.669432 488.299088 
L 953.041238 499.918875 
L 957.419476 512.027353 
L 961.795012 524.663654 
L 966.172585 537.794431 
L 970.555765 551.42386 
L 970.555765 551.42386 
" style="fill:none;stroke:#ffa500;stroke-dasharray:16,16;stroke-dashoffset:0;stroke-width:4;"/>
   </g>
   <g id="line2d_82">
    <path clip-path="url(#p28186d2d6c)" d="M 97.776 305.341733 
L 165.091011 306.850478 
L 204.467767 308.358785 
L 232.406021 309.849807 
L 254.076614 311.309315 
L 271.782778 312.723581 
L 299.721032 315.361433 
L 346.871139 320.289323 
L 360.768382 321.447368 
L 372.923604 322.143288 
L 383.725285 322.432021 
L 393.444893 322.387051 
L 402.279621 322.082617 
L 410.377228 321.583752 
L 417.851302 320.943657 
L 428.083392 319.80816 
L 437.339443 318.551652 
L 448.450408 316.800728 
L 460.759904 314.592201 
L 469.594631 312.813498 
L 477.692239 310.971442 
L 481.50116 310.003968 
L 488.698158 307.931639 
L 493.766179 306.231518 
L 498.582787 304.394532 
L 501.666063 303.094686 
L 507.553625 300.330532 
L 513.104566 297.385115 
L 518.355306 294.311626 
L 524.54307 290.369846 
L 531.482809 285.617364 
L 551.577921 271.412036 
L 556.013168 268.572379 
L 560.254673 266.064585 
L 564.318657 263.882664 
L 568.981074 261.666652 
L 573.429868 259.83099 
L 577.683761 258.298253 
L 582.42202 256.801726 
L 586.939812 255.556535 
L 591.256747 254.551146 
L 595.389925 253.819725 
L 599.907718 253.384759 
L 602.09017 253.345978 
L 604.224652 253.431215 
L 606.828428 253.7114 
L 608.862325 254.069651 
L 610.854498 254.540007 
L 613.288586 255.273106 
L 617.521873 256.94566 
L 619.796334 258.0406 
L 624.191429 260.513052 
L 628.806835 263.562685 
L 633.212808 266.833505 
L 637.427534 270.204819 
L 652.985327 283.058554 
L 657.357804 286.306046 
L 661.833943 289.273316 
L 666.11283 291.714366 
L 670.478286 293.781942 
L 674.911151 295.45427 
L 679.150477 296.686602 
L 683.679361 297.666783 
L 688.00642 298.349176 
L 694.676962 299.102336 
L 703.421231 300.047137 
L 707.878535 300.75494 
L 712.140208 301.699571 
L 716.555287 302.998958 
L 720.93716 304.575423 
L 727.531557 307.249434 
L 742.861317 313.734514 
L 749.468665 316.742621 
L 753.862714 318.943216 
L 758.174733 321.364897 
L 762.613842 324.220473 
L 766.957724 327.394942 
L 773.545937 332.675329 
L 780.147663 337.926915 
L 791.067296 346.322199 
L 795.437833 350.129805 
L 799.831624 354.386288 
L 804.237314 359.06212 
L 806.433225 321.425823 
L 808.58058 363.787295 
L 810.807357 366.211728 
L 812.984218 368.778626 
L 815.173503 364.059352 
L 817.373326 371.56819 
L 819.52442 372.289007 
L 821.741365 303.126906 
L 823.908829 374.980298 
L 826.136461 377.127283 
L 828.314138 379.69375 
L 830.495423 378.569174 
L 832.679016 377.246557 
L 834.8637 391.415043 
L 837.048334 396.990869 
L 839.231853 403.901855 
L 841.459147 411.979673 
L 845.809982 429.452819 
L 852.381474 457.934829 
L 861.155582 496.142724 
L 867.708401 523.44694 
L 874.273183 549.613641 
L 880.851194 574.886444 
L 891.771895 615.661848 
L 904.913844 664.580856 
L 911.466001 689.591316 
L 918.042719 715.475198 
L 919.413048 721 
L 919.413048 721 
" style="fill:none;stroke:#ffa500;stroke-linecap:square;stroke-width:2;"/>
   </g>
   <g id="line2d_83">
    <path clip-path="url(#p28186d2d6c)" d="M 97.776 261.882157 
L 204.467767 262.186572 
L 346.871139 262.8393 
L 367.036042 262.645546 
L 383.725285 262.265032 
L 397.962686 261.702656 
L 410.377228 260.96077 
L 421.383147 260.038385 
L 431.267777 258.936108 
L 440.238615 257.663505 
L 448.450408 256.240285 
L 456.021646 254.69036 
L 463.045069 253.036109 
L 471.683207 250.700912 
L 479.615372 248.252432 
L 486.94829 245.723656 
L 493.766179 243.143439 
L 501.666063 239.883615 
L 508.971388 236.622502 
L 518.355306 232.112093 
L 526.911846 227.720746 
L 537.959544 221.769632 
L 551.577921 214.441056 
L 557.732063 211.326358 
L 564.318657 208.214647 
L 571.230943 205.254089 
L 575.580104 203.587969 
L 580.419577 201.952139 
L 584.384006 200.811209 
L 588.813472 199.7748 
L 593.640057 198.952271 
L 597.67509 198.514075 
L 602.09017 198.282192 
L 606.828428 198.283348 
L 613.288586 198.57664 
L 626.316569 199.306389 
L 633.212808 199.348975 
L 639.65164 199.085052 
L 646.376313 198.547904 
L 657.357804 197.371376 
L 670.478286 196.000177 
L 679.150477 195.349589 
L 685.75307 195.073573 
L 692.362084 195.039239 
L 698.948678 195.291355 
L 705.675453 195.874815 
L 712.140208 196.718907 
L 723.133716 198.29303 
L 727.531557 198.711109 
L 731.880718 198.921166 
L 738.458015 198.93286 
L 747.315781 198.912684 
L 751.690539 199.146628 
L 755.987365 199.66224 
L 758.174733 200.062792 
L 760.419649 200.587627 
L 762.613842 201.224327 
L 764.759553 201.975682 
L 766.957724 202.885496 
L 769.203823 203.966175 
L 771.399146 205.170136 
L 773.545937 206.485016 
L 777.967171 209.590836 
L 782.280271 213.068523 
L 786.732843 217.02809 
L 791.067296 221.168145 
L 795.437833 225.588152 
L 804.237314 234.906234 
L 806.433225 228.686467 
L 808.58058 238.824849 
L 810.807357 240.577162 
L 812.984218 240.418877 
L 815.173503 243.098701 
L 819.52442 245.353457 
L 821.741365 242.34303 
L 823.908829 247.125526 
L 826.136461 248.392516 
L 830.495423 251.672456 
L 832.679016 250.90614 
L 834.8637 254.825873 
L 837.048334 257.600668 
L 839.231853 261.128413 
L 841.459147 265.103305 
L 845.809982 273.656958 
L 852.381474 287.64871 
L 863.340531 311.097125 
L 869.889297 324.55808 
L 876.473085 337.620262 
L 885.215977 354.434111 
L 909.277464 400.232238 
L 915.849842 413.296662 
L 922.404967 426.816962 
L 928.974893 440.97649 
L 935.547132 455.866627 
L 939.921579 466.224523 
L 944.298557 476.992511 
L 948.669432 488.178747 
L 953.041238 499.799194 
L 957.419476 511.920699 
L 963.988979 531.061389 
L 970.555765 551.330806 
L 970.555765 551.330806 
" style="fill:none;stroke:#800080;stroke-dasharray:16,16;stroke-dashoffset:0;stroke-width:4;"/>
   </g>
   <g id="line2d_84">
    <path clip-path="url(#p28186d2d6c)" d="M 97.776 298.760603 
L 165.091011 300.665066 
L 204.467767 302.579538 
L 232.406021 304.485593 
L 254.076614 306.366699 
L 271.782778 308.205598 
L 286.753126 309.983207 
L 311.159535 313.26459 
L 330.647676 315.99334 
L 339.097788 317.064301 
L 346.871139 317.894694 
L 354.068137 318.470164 
L 360.768382 318.802546 
L 367.036042 318.922673 
L 372.923604 318.866437 
L 378.474545 318.666183 
L 383.725285 318.348547 
L 393.444893 317.443145 
L 402.279621 316.279593 
L 410.377228 314.946979 
L 417.851302 313.508297 
L 428.083392 311.246561 
L 437.339443 308.947106 
L 448.450408 305.921784 
L 460.759904 302.281328 
L 471.683207 298.778058 
L 479.615372 296.003163 
L 486.94829 293.178144 
L 490.417053 291.728214 
L 495.398403 289.492964 
L 501.666063 286.391671 
L 507.553625 283.161643 
L 513.104566 279.831057 
L 518.355306 276.436336 
L 524.54307 272.159158 
L 531.482809 267.068007 
L 553.376399 250.564321 
L 557.732063 247.569244 
L 562.713413 244.392987 
L 566.677842 242.086229 
L 571.230943 239.696383 
L 575.580104 237.667467 
L 580.419577 235.678799 
L 584.384006 234.246898 
L 588.813472 232.862249 
L 593.640057 231.660847 
L 597.67509 230.974139 
L 599.907718 230.747197 
L 602.09017 230.645715 
L 604.224652 230.671001 
L 606.828428 230.879209 
L 608.862325 231.182547 
L 610.854498 231.601283 
L 613.288586 232.276154 
L 617.521873 233.868068 
L 619.796334 234.934424 
L 624.191429 237.387611 
L 626.316569 238.747793 
L 630.834362 241.97756 
L 635.151296 245.432291 
L 639.65164 249.324493 
L 648.406666 257.338072 
L 655.196171 263.50092 
L 659.472367 267.162124 
L 663.854239 270.632036 
L 668.320085 273.808008 
L 672.589565 276.467756 
L 677.178531 278.906734 
L 681.560403 280.847171 
L 685.75307 282.384376 
L 690.208669 283.731476 
L 694.676962 284.861412 
L 710.032746 288.474723 
L 714.372835 289.853805 
L 718.68977 291.495939 
L 723.133716 293.421434 
L 731.880718 297.526604 
L 745.114087 303.905855 
L 751.690539 307.312587 
L 755.987365 309.765982 
L 760.419649 312.596007 
L 764.759553 315.727863 
L 769.203823 319.283814 
L 782.280271 330.201481 
L 791.067296 337.246848 
L 795.437833 341.097919 
L 799.831624 345.353471 
L 804.237314 350.016164 
L 806.433225 316.398274 
L 808.58058 354.781859 
L 810.807357 357.226407 
L 812.984218 359.783457 
L 815.173503 355.937626 
L 817.373326 362.777883 
L 819.52442 363.621162 
L 821.741365 300.065156 
L 823.908829 366.333792 
L 826.136461 368.384106 
L 828.314138 370.82789 
L 830.495423 370.100505 
L 832.679016 369.226888 
L 834.8637 382.007487 
L 837.048334 387.294228 
L 839.231853 393.843311 
L 841.459147 401.52975 
L 843.636502 409.689149 
L 848.021673 427.345669 
L 865.513218 500.073837 
L 872.089244 525.519569 
L 878.655537 549.808045 
L 885.215977 573.232667 
L 896.152963 611.2467 
L 911.466001 664.400226 
L 920.227951 695.805687 
L 926.999547 721 
L 926.999547 721 
" style="fill:none;stroke:#800080;stroke-linecap:square;stroke-width:2;"/>
   </g>
   <g id="patch_3">
    <path d="M 97.776 640.8 
L 97.776 36 
" style="fill:none;stroke:#000000;stroke-linecap:square;stroke-linejoin:miter;stroke-width:0.8;"/>
   </g>
   <g id="patch_4">
    <path d="M 957.6 640.8 
L 957.6 36 
" style="fill:none;stroke:#000000;stroke-linecap:square;stroke-linejoin:miter;stroke-width:0.8;"/>
   </g>
   <g id="patch_5">
    <path d="M 97.776 640.8 
L 957.6 640.8 
" style="fill:none;stroke:#000000;stroke-linecap:square;stroke-linejoin:miter;stroke-width:0.8;"/>
   </g>
   <g id="patch_6">
    <path d="M 97.776 36 
L 957.6 36 
" style="fill:none;stroke:#000000;stroke-linecap:square;stroke-linejoin:miter;stroke-width:0.8;"/>
   </g>
   <g id="text_13">
    <!-- The Mean and std of the gradients of each layer -->
    <defs>
     <path d="M 18.3125 70.21875 
L 18.3125 54.6875 
L 36.8125 54.6875 
L 36.8125 47.703125 
L 18.3125 47.703125 
L 18.3125 18.015625 
Q 18.3125 11.328125 20.140625 9.421875 
Q 21.96875 7.515625 27.59375 7.515625 
L 36.8125 7.515625 
L 36.8125 0 
L 27.59375 0 
Q 17.1875 0 13.234375 3.875 
Q 9.28125 7.765625 9.28125 18.015625 
L 9.28125 47.703125 
L 2.6875 47.703125 
L 2.6875 54.6875 
L 9.28125 54.6875 
L 9.28125 70.21875 
z
" id="DejaVuSans-74"/>
     <path d="M 37.109375 75.984375 
L 37.109375 68.5 
L 28.515625 68.5 
Q 23.6875 68.5 21.796875 66.546875 
Q 19.921875 64.59375 19.921875 59.515625 
L 19.921875 54.6875 
L 34.71875 54.6875 
L 34.71875 47.703125 
L 19.921875 47.703125 
L 19.921875 0 
L 10.890625 0 
L 10.890625 47.703125 
L 2.296875 47.703125 
L 2.296875 54.6875 
L 10.890625 54.6875 
L 10.890625 58.5 
Q 10.890625 67.625 15.140625 71.796875 
Q 19.390625 75.984375 28.609375 75.984375 
z
" id="DejaVuSans-66"/>
     <path d="M 45.40625 27.984375 
Q 45.40625 37.75 41.375 43.109375 
Q 37.359375 48.484375 30.078125 48.484375 
Q 22.859375 48.484375 18.828125 43.109375 
Q 14.796875 37.75 14.796875 27.984375 
Q 14.796875 18.265625 18.828125 12.890625 
Q 22.859375 7.515625 30.078125 7.515625 
Q 37.359375 7.515625 41.375 12.890625 
Q 45.40625 18.265625 45.40625 27.984375 
z
M 54.390625 6.78125 
Q 54.390625 -7.171875 48.1875 -13.984375 
Q 42 -20.796875 29.203125 -20.796875 
Q 24.46875 -20.796875 20.265625 -20.09375 
Q 16.0625 -19.390625 12.109375 -17.921875 
L 12.109375 -9.1875 
Q 16.0625 -11.328125 19.921875 -12.34375 
Q 23.78125 -13.375 27.78125 -13.375 
Q 36.625 -13.375 41.015625 -8.765625 
Q 45.40625 -4.15625 45.40625 5.171875 
L 45.40625 9.625 
Q 42.625 4.78125 38.28125 2.390625 
Q 33.9375 0 27.875 0 
Q 17.828125 0 11.671875 7.65625 
Q 5.515625 15.328125 5.515625 27.984375 
Q 5.515625 40.671875 11.671875 48.328125 
Q 17.828125 56 27.875 56 
Q 33.9375 56 38.28125 53.609375 
Q 42.625 51.21875 45.40625 46.390625 
L 45.40625 54.6875 
L 54.390625 54.6875 
z
" id="DejaVuSans-67"/>
     <path d="M 41.109375 46.296875 
Q 39.59375 47.171875 37.8125 47.578125 
Q 36.03125 48 33.890625 48 
Q 26.265625 48 22.1875 43.046875 
Q 18.109375 38.09375 18.109375 28.8125 
L 18.109375 0 
L 9.078125 0 
L 9.078125 54.6875 
L 18.109375 54.6875 
L 18.109375 46.1875 
Q 20.953125 51.171875 25.484375 53.578125 
Q 30.03125 56 36.53125 56 
Q 37.453125 56 38.578125 55.875 
Q 39.703125 55.765625 41.0625 55.515625 
z
" id="DejaVuSans-72"/>
     <path d="M 9.421875 54.6875 
L 18.40625 54.6875 
L 18.40625 0 
L 9.421875 0 
z
M 9.421875 75.984375 
L 18.40625 75.984375 
L 18.40625 64.59375 
L 9.421875 64.59375 
z
" id="DejaVuSans-69"/>
     <path d="M 9.421875 75.984375 
L 18.40625 75.984375 
L 18.40625 0 
L 9.421875 0 
z
" id="DejaVuSans-6c"/>
     <path d="M 32.171875 -5.078125 
Q 28.375 -14.84375 24.75 -17.8125 
Q 21.140625 -20.796875 15.09375 -20.796875 
L 7.90625 -20.796875 
L 7.90625 -13.28125 
L 13.1875 -13.28125 
Q 16.890625 -13.28125 18.9375 -11.515625 
Q 21 -9.765625 23.484375 -3.21875 
L 25.09375 0.875 
L 2.984375 54.6875 
L 12.5 54.6875 
L 29.59375 11.921875 
L 46.6875 54.6875 
L 56.203125 54.6875 
z
" id="DejaVuSans-79"/>
    </defs>
    <g transform="translate(262.620656 30)scale(0.22 -0.22)">
     <use xlink:href="#DejaVuSans-54"/>
     <use x="61.083984" xlink:href="#DejaVuSans-68"/>
     <use x="124.462891" xlink:href="#DejaVuSans-65"/>
     <use x="185.986328" xlink:href="#DejaVuSans-20"/>
     <use x="217.773438" xlink:href="#DejaVuSans-4d"/>
     <use x="304.052734" xlink:href="#DejaVuSans-65"/>
     <use x="365.576172" xlink:href="#DejaVuSans-61"/>
     <use x="426.855469" xlink:href="#DejaVuSans-6e"/>
     <use x="490.234375" xlink:href="#DejaVuSans-20"/>
     <use x="522.021484" xlink:href="#DejaVuSans-61"/>
     <use x="583.300781" xlink:href="#DejaVuSans-6e"/>
     <use x="646.679688" xlink:href="#DejaVuSans-64"/>
     <use x="710.15625" xlink:href="#DejaVuSans-20"/>
     <use x="741.943359" xlink:href="#DejaVuSans-73"/>
     <use x="794.042969" xlink:href="#DejaVuSans-74"/>
     <use x="833.251953" xlink:href="#DejaVuSans-64"/>
     <use x="896.728516" xlink:href="#DejaVuSans-20"/>
     <use x="928.515625" xlink:href="#DejaVuSans-6f"/>
     <use x="989.697266" xlink:href="#DejaVuSans-66"/>
     <use x="1024.902344" xlink:href="#DejaVuSans-20"/>
     <use x="1056.689453" xlink:href="#DejaVuSans-74"/>
     <use x="1095.898438" xlink:href="#DejaVuSans-68"/>
     <use x="1159.277344" xlink:href="#DejaVuSans-65"/>
     <use x="1220.800781" xlink:href="#DejaVuSans-20"/>
     <use x="1252.587891" xlink:href="#DejaVuSans-67"/>
     <use x="1316.064453" xlink:href="#DejaVuSans-72"/>
     <use x="1357.177734" xlink:href="#DejaVuSans-61"/>
     <use x="1418.457031" xlink:href="#DejaVuSans-64"/>
     <use x="1481.933594" xlink:href="#DejaVuSans-69"/>
     <use x="1509.716797" xlink:href="#DejaVuSans-65"/>
     <use x="1571.240234" xlink:href="#DejaVuSans-6e"/>
     <use x="1634.619141" xlink:href="#DejaVuSans-74"/>
     <use x="1673.828125" xlink:href="#DejaVuSans-73"/>
     <use x="1725.927734" xlink:href="#DejaVuSans-20"/>
     <use x="1757.714844" xlink:href="#DejaVuSans-6f"/>
     <use x="1818.896484" xlink:href="#DejaVuSans-66"/>
     <use x="1854.101562" xlink:href="#DejaVuSans-20"/>
     <use x="1885.888672" xlink:href="#DejaVuSans-65"/>
     <use x="1947.412109" xlink:href="#DejaVuSans-61"/>
     <use x="2008.691406" xlink:href="#DejaVuSans-63"/>
     <use x="2063.671875" xlink:href="#DejaVuSans-68"/>
     <use x="2127.050781" xlink:href="#DejaVuSans-20"/>
     <use x="2158.837891" xlink:href="#DejaVuSans-6c"/>
     <use x="2186.621094" xlink:href="#DejaVuSans-61"/>
     <use x="2247.900391" xlink:href="#DejaVuSans-79"/>
     <use x="2307.080078" xlink:href="#DejaVuSans-65"/>
     <use x="2368.603516" xlink:href="#DejaVuSans-72"/>
    </g>
   </g>
  </g>
 </g>
 <defs>
  <clipPath id="p28186d2d6c">
   <rect height="604.8" width="859.824" x="97.776" y="36"/>
  </clipPath>
 </defs>
</svg>
